# xmcd
#
# Track frame offsets: 
#        182
#        10315
#        20365
#        30312
#        42512
#        56172
#        67137
#        79367
#        98177
#        116392
#        126862
#        138110
#        147900
#        158267
#        173745
#        183097
#
# Disc length: 2611 seconds
#
# Revision: 3
# Processed by: cddbd v1.5.2PL0 Copyright (c) Steve Scherf et al.
# Submitted via: ExactAudioCopy v1.0b6
#
DISCID=cd0a3110
DTITLE=Country for Truck Drivers - Highways - Great Songs Of The Ameri
DTITLE=can Truck Drivers
DYEAR=1990
DGENRE=Country
TTITLE0=Dave Dudley - Six Days On The Road
TTITLE1=Dave Dudley - Truck Drivin' Son-Of-A-Gun
TTITLE2=Tom T. Hall - Highways
TTITLE3=Dave Dudley - Trucker's Prayer
TTITLE4=Carl Perkins - Going To Memphis
TTITLE5=Dave Dudley - D.J. Memphis Joe
TTITLE6=Dave Dudley - Truck Driver's Waltz
TTITLE7=Jerry Kennedy - Sunday Mornin' Comin' Down
TTITLE8=C.W. McCall - Convoy
TTITLE9=Dave Dudley - Truck Drivin' Man
TTITLE10=Roger Miller - King Of The Road
TTITLE11=Dave Dudley - Just A Few Miles More
TTITLE12=Dave Dudley - Sugarland U.S.A
TTITLE13=Tom T. Hall - Salute To A Switchblade
TTITLE14=Dave Dudley - I'm Moving On
TTITLE15=The Statler Brothers - Take Me Home Country Roads
EXTD=
EXTT0=
EXTT1=
EXTT2=
EXTT3=
EXTT4=
EXTT5=
EXTT6=
EXTT7=
EXTT8=
EXTT9=
EXTT10=
EXTT11=
EXTT12=
EXTT13=
EXTT14=
EXTT15=
PLAYORDER=
